<?xml version="1.0" encoding="UTF-8"?>
<svg id="Layer_1" data-name="Layer 1" xmlns="http://www.w3.org/2000/svg" viewBox="0 0 1000 1000">
  <defs>
    <style>
      .cls-1 {
        fill: #fff;
      }
    </style>
  </defs>
  <g>
    <path class="cls-1" d="M502.86,901.23c-44.25,0-87.46-7.12-128.44-21.18-41.33-14.17-79.5-35.09-113.46-62.19l-33.16-26.46c-2.13-1.7-4.77-2.62-7.48-2.62-.16,0-.32,0-.48,0-14.26.57-25.21.93-35.67.93-35,0-64.03-4.11-100.58-24.57-21.03-11.77-37.1-28.33-47.79-49.22-10.43-20.39-15.09-44.39-13.47-69.4,3.23-50.14,25.2-98.25,63.53-139.14,7.33-7.82,11.76-16.15,14.35-27.01.18-.77.29-1.56.32-2.35,3.65-101.36,48.66-197.43,126.73-270.5,74.94-70.14,171.83-108.77,272.82-108.77,77.35,0,153.11,22.71,219.11,65.67,1.99,1.29,4.26,1.94,6.55,1.94,2.03,0,4.06-.51,5.9-1.55,31.32-17.68,64.76-32.66,96.71-43.34,37.16-12.42,71.03-18.72,100.67-18.72,3.42,0,6.81.09,10.1.26,19.12,4.77,30.65,13.57,36.15,27.57,6.74,38.97,1.05,86.64-16.49,137.97-15.44,45.19-39.96,91.73-67.27,127.67-2.15,2.83-2.94,6.48-2.14,9.95,13.26,57.68,14.23,115.55,2.91,172-10.88,54.21-32.55,104.75-64.41,150.22-32.46,46.33-73.61,84.74-122.3,114.17-50.36,30.45-106.2,49.62-165.97,57.01-12.2,1.09-24.56,1.64-36.72,1.64Z"/>
    <path d="M500.06,110.77c75.02,0,148.52,22.04,212.56,63.72,3.97,2.58,8.53,3.89,13.09,3.89,4.06,0,8.13-1.03,11.8-3.1,30.66-17.3,63.37-31.97,94.61-42.41,35.94-12.01,68.52-18.1,96.87-18.1,2.8,0,5.58.06,8.29.18,17.45,4.61,23.46,12.27,26.34,18.95,6.06,36.76.46,81.91-16.23,130.79-15.04,44.03-38.9,89.33-65.47,124.29-4.31,5.67-5.87,12.96-4.28,19.89,12.87,56.01,13.83,112.18,2.84,166.96-10.55,52.57-31.57,101.59-62.47,145.69-15.51,22.13-33.41,42.74-53.21,61.26-19.97,18.68-42,35.34-65.47,49.53-48.85,29.53-103.02,48.15-161.02,55.34-11.79,1.04-23.71,1.57-35.45,1.57-42.92,0-84.82-6.91-124.54-20.53-40.02-13.72-76.99-33.98-109.87-60.22l-33.16-26.45c-4.26-3.4-9.54-5.24-14.97-5.24-.32,0-.64,0-.97.02-14.12.57-24.93.92-35.19.92-33.92,0-60.3-3.77-94.72-23.04-18.92-10.59-33.38-25.47-42.97-44.22-9.44-18.47-13.66-40.31-12.18-63.16,3.05-47.33,23.91-92.87,60.31-131.7,8.72-9.3,14.21-19.61,17.27-32.43.37-1.54.58-3.12.64-4.71,3.54-98.17,47.2-191.28,122.94-262.17,72.71-68.05,166.69-105.53,264.62-105.53M500.06,86.77c-101.34,0-201.81,37.88-281.02,112.01-77.53,72.56-126.63,170.88-130.52,278.83-2.12,8.88-5.63,15.4-11.43,21.59-38.02,40.55-63.18,91.21-66.75,146.57-3.53,54.81,20.45,103.59,67.37,129.86,38.18,21.37,68.56,26.1,106.45,26.1,11.25,0,23.18-.42,36.15-.94l33.16,26.45c70.75,56.44,158.27,85.99,249.39,85.99,12.6,0,25.28-.57,37.99-1.7,249.01-30.65,416.76-261.91,360.19-508.03,53.7-70.68,101.87-186.75,85.82-276.1-7.61-20.71-24.84-31.24-46-36.29-3.91-.23-7.87-.34-11.87-.34-66.46,0-144.37,30.36-203.27,63.61-69.62-45.32-147.89-67.61-225.66-67.61h0Z"/>
  </g>
  <path class="cls-1" d="M628.73,482.56c10.25,15.82,23.93,22.05,42.66,15.46,1.54,3.58,4.39,11.83,4.42,15.75l.59,70.48c.03,3.51,2.84,10.51,5.78,11.01l11.71,1.97c53.68-30.8,92.35-83.64,84.54-149.74,91.54-65.57,157.79-175.06,162.57-288.95-1.34-5.69-2.83-12.34-5.74-14.52-15.64-11.71-112.96,20.39-136.89,31.04-61.92,27.57-113.37,69.44-154.55,123.85-69.84-9.56-120.1,29.35-155.83,85.22.35,4.36.89,10.04,1.55,13.04s8.75,3.92,11.9,3.93l62.38.17c5.55.02,18.16,5.74,17.82,11.01-.51,7.72-2.11,20.6,1.21,25.88,16.44,13.02,34.16,26.3,45.9,44.41Z"/>
  <path class="cls-1" d="M104.84,731.53c58.44,35.58,156.49,20.01,216.53-2.32,45.45-16.9,87.25-36.15,128.33-61.63,46.1-28.6,88.8-58.9,129.21-94.64,13.26-11.72,19.62-28.81,18.64-45.51-.88-15.03-10.25-32.71-24.25-40.32-24.07-13.11-47.25-6.76-66.12,11.22-65.21,62.14-136.29,116.17-218.71,153.1-40.84,18.3-81.37,31.14-125.45,29.53-40.17-1.47-73.31-29.64-74.48-70.3l-1.19-41.4c-30.83,52.48-47.07,122.99,17.48,162.28Z"/>
  <path d="M628.73,482.56c-11.74-18.11-29.46-31.39-45.9-44.41-3.32-5.28-1.71-18.16-1.21-25.88.35-5.27-12.27-11-17.82-11.01l-62.38-.17c-3.14,0-11.27-1.04-11.9-3.93s-1.2-8.68-1.55-13.04c35.73-55.86,85.99-94.78,155.83-85.22,41.18-54.41,92.63-96.28,154.55-123.85,23.93-10.65,121.25-42.75,136.89-31.04,2.91,2.18,4.4,8.83,5.74,14.52-4.78,113.89-71.04,223.38-162.57,288.95,7.81,66.1-30.86,118.93-84.54,149.74l-11.71-1.97c-2.94-.49-5.75-7.5-5.78-11.01l-.59-70.48c-.03-3.92-2.88-12.17-4.42-15.75-18.73,6.59-32.41.36-42.66-15.46ZM808.83,334.71c20.06-8.85,30.67-28.05,29.31-47.04-1.33-18.62-13.97-36.75-33.54-42.07-20.69-5.62-40.97,4.68-51.28,21.54-9.96,16.29-8.39,37.57,4.22,53.45,10.91,13.74,31.53,22.83,51.28,14.11Z"/>
  <path d="M104.84,731.53c-64.55-39.3-48.32-109.81-17.48-162.28l1.19,41.4c1.17,40.65,34.31,68.83,74.48,70.3,44.08,1.61,84.61-11.23,125.45-29.53,82.41-36.92,153.5-90.95,218.71-153.1,18.86-17.98,42.05-24.32,66.12-11.22,13.99,7.62,23.36,25.29,24.25,40.32.98,16.7-5.38,33.79-18.64,45.51-40.41,35.74-83.12,66.04-129.21,94.64-41.08,25.49-82.88,44.73-128.33,61.63-60.05,22.33-158.09,37.9-216.53,2.32Z"/>
  <path class="cls-1" d="M808.83,334.71c-19.75,8.71-40.37-.38-51.28-14.11-12.61-15.88-14.18-37.16-4.22-53.45,10.31-16.87,30.58-27.17,51.28-21.54,19.57,5.32,32.2,23.45,33.54,42.07,1.36,18.99-9.25,38.19-29.31,47.04Z"/>
</svg>