<?xml version="1.0" encoding="UTF-8"?>
<svg id="Layer_1" data-name="Layer 1" xmlns="http://www.w3.org/2000/svg" viewBox="0 0 965.82 1750.12">
  <defs>
    <style>
      .cls-1 {
        fill: #fff;
      }
    </style>
  </defs>
  <path d="M219.91,554.2c-36.24,6.09-69.09,6.29-101.78-5.65-33.3-12.16-53.31-43.31-50.1-79.32,1.24-13.91,16.69-75.04,32.49-71.47,15.87,3.59-18.22,43.35,17.4,70.75,10.89,8.37,25.54,12.34,41.34,13.29-50.74-91.5-56.51-198.14-9.57-298.48C187.65,102.18,265.6,34.69,360.01,10.37c129.56-33.38,267.15,15.15,344,126.28,53.72-39.66,115.66-60.85,180.58-58.29,2.9.11,7.92,1.75,9.8,3.09,2.34,1.68,4.2,9.12,3.63,12.3-14.62,81.45-66.66,144.09-134.63,189.06,16.97,150.28-71.25,291.25-212.88,343.09-113.83,41.67-242.34,14.13-330.6-71.7h0Z"/>
  <path d="M588.24,275.48l13.35-24.19c-25.1-10.24-53.27,4.62-62.61-.64-11.12-6.26,17.16-34.52,22.62-40.01,25.31-25.42,59.98-37.19,94.95-32.02l33.84-31.75C582.94-6.98,368.93-26.35,234.09,98.21c-107.01,98.85-132.73,263.37-51.63,385.52,108.79-11.37,227.34-84.12,312.72-147.07l-15.24-3.97c30.11-27.22,67.51-63.2,108.28-57.21h.02Z"/>
  <path d="M862.95,150.96c10.31-21.39,16.32-38.05,20.25-58.93-22.37.79-40.98,2.15-61.76,7.66,13.22,21.07,24.42,34.79,41.5,51.26h.01Z"/>
  <path d="M652.47,296.37l14.33,18.52c26.03-10.72,49.13-21.33,73.81-34.88,47.27-28.62,87.71-66.07,116.38-114.91-20.04-18.58-36.98-37.93-48.42-62.66-44.33,11.18-82.71,33.28-116.64,63.22-29.32,24.82-52.12,53.26-73.84,85.71l11.37,16.97c11.65-10.04,72.59-55.62,81.34-40.51,8.14,14.06-45.11,59.04-58.34,68.53h.01Z"/>
  <path d="M608.87,234.04c8.85-1.95,19.93-22.04,19.02-30.03-18.11-17.35-53.98,11.33-62.89,27.56l43.86,2.47h.01Z"/>
  <path d="M610.8,305.28c30.34-12.79,50.06-33.04,71.04-56.34-26.54,15.43-51.46,33.98-71.04,56.34Z"/>
  <path d="M611.65,285.45c5.21-6.3,7.77-9.35,6.49-11.69-1.13-2.06-5.91-6.69-7.37-4.92-2.22,2.68-5.96,7.11-4.75,8.79l5.64,7.82h-.01Z"/>
  <path d="M240.28,531.59c12.35,2.25,35.39-4.36,44.56-11.44,11.05-8.52,15.98-16.93,43.11-13.92,40.45-17.93,83.07-35.2,118.78-61.3,10.8-7.89,14.58-12.7,28.45-16.57,11.96-3.34,26.69-14.04,37.87-21.39l59.46-39.07-.51-8.45c-.1-1.69,6.38-1.64,8.03-1.31l-7.84,30.84c19.27-5.21,57.67-45.37,44.24-68.46l-22.17,7.89c-1.89.67-8.1-.62-8.39-2.34s-.29-6.84.65-8.38l11.68-19.18c-17.61-22.38-60.68,1.97-78.87,20.51l18.79,1.69c-18.67,14.55-35.53,30.93-55.22,44.42-72.13,49.41-121.1,78.63-202.31,111.82-5.05,3.77-11.59,10.01-18.33,10.97l-24.27,3.45c-28.3,4.02-54.48,7.09-83.09,7.46l-27.17.35-7.86-8.4c-10.97-7.25-18.81-14.74-30.19-27.25-11.79,16.84-2.98,41.67,15.37,49.26,3.01,4.96,7.78,15.83,12.47,17.98,17.85,8.21,41.33,14.15,60.4,9.27,48.64-12.43,25.81-15.07,62.35-8.41v-.04Z"/>
  <path d="M540.8,424.05l9.94-23.18c-55.25,38.38-110.99,70.26-170.31,99.87-44.83,22.38-89.5,38.51-138.94,50.03,124.36,111.25,310.35,100.57,422.94-20.05,57.6-61.71,89.16-143.48,82.36-229.68-5.46,28.04-18.45,52.87-43.03,70.69-4.51,3.27-51.34,35.4-53.89,23.21s15.93-34.82,13.37-62.07l-29.59,4.2c-7.73,44.29-54.85,71.48-92.84,86.96v.02Z"/>
  <path d="M651.52,317.59l-10.24-13-9.04,5.85c3.28,4.34,6.07,7.99,8.62,9.4,2.13,1.18,7.39-.98,10.66-2.25Z"/>
  <path d="M673.91,372.74c20.44-10.91,60.17-46.75,53.02-68.06l-49.34,21.18,5.56,14.75-9.24,32.13Z"/>
  <path class="cls-1" d="M588.24,275.48c-40.77-5.98-78.17,29.99-108.28,57.21l15.24,3.97c-85.38,62.95-203.93,135.7-312.72,147.07-81.11-122.15-55.38-286.67,51.63-385.52C368.96-26.35,582.97-6.98,690.41,146.87l-33.84,31.75c-34.97-5.17-69.64,6.6-94.95,32.02-5.47,5.49-33.74,33.75-22.62,40.01,9.34,5.26,37.5-9.59,62.61.64l-13.35,24.19h-.02Z"/>
  <path class="cls-1" d="M540.8,424.05c38-15.48,85.12-42.67,92.84-86.96l29.59-4.2c2.56,27.24-15.83,50.3-13.37,62.07s49.38-19.94,53.89-23.21c24.58-17.82,37.57-42.66,43.03-70.69,6.8,86.2-24.76,167.96-82.36,229.68-112.59,120.62-298.58,131.3-422.94,20.05,49.43-11.53,94.11-27.66,138.94-50.03,59.32-29.61,115.06-61.49,170.31-99.87l-9.94,23.18v-.02Z"/>
  <path d="M240.28,531.59c-36.54-6.65-13.71-4.02-62.35,8.41-19.08,4.88-42.55-1.06-60.4-9.27-4.69-2.16-9.46-13.03-12.47-17.98-18.35-7.59-27.16-32.42-15.37-49.26,11.38,12.51,19.22,20,30.19,27.25l7.86,8.4,27.17-.35c28.61-.37,54.78-3.44,83.09-7.46l24.27-3.45c6.74-.96,13.28-7.2,18.33-10.97,81.21-33.18,130.18-62.41,202.31-111.82,19.69-13.49,36.55-29.87,55.22-44.42l-18.79-1.69c18.19-18.54,61.26-42.89,78.87-20.51l-11.68,19.18c-.94,1.54-.94,6.67-.65,8.38s6.5,3.01,8.39,2.34l22.17-7.89c13.43,23.1-24.97,63.25-44.24,68.46l7.84-30.84c-1.65-.33-8.13-.38-8.03,1.31l.51,8.45-59.46,39.07c-11.19,7.35-25.91,18.06-37.87,21.39-13.87,3.87-17.65,8.68-28.45,16.57-35.71,26.1-78.33,43.37-118.78,61.3-27.12-3.01-32.06,5.4-43.11,13.92-9.18,7.08-32.22,13.68-44.56,11.44v.04Z"/>
  <path class="cls-1" d="M652.47,296.37c13.24-9.49,66.48-54.47,58.34-68.53-8.75-15.11-69.69,30.47-81.34,40.51l-11.37-16.97c21.72-32.45,44.52-60.89,73.84-85.71,33.93-29.94,72.31-52.05,116.64-63.22,11.44,24.73,28.38,44.08,48.42,62.66-28.68,48.84-69.11,86.29-116.38,114.91-24.68,13.55-47.78,24.16-73.81,34.88l-14.33-18.52h-.01ZM766.59,140.01c-21.57,6.22-29.89,28.92-24.55,45.69,6.49,20.4,26.57,29.11,44.22,24.77,21.09-5.2,31.12-26.51,25.75-46.04-5.07-18.44-24.67-30.4-45.42-24.41h0Z"/>
  <path d="M862.95,150.96c-17.08-16.48-28.29-30.19-41.5-51.26,20.78-5.52,39.39-6.87,61.76-7.66-3.93,20.87-9.94,37.53-20.25,58.93h-.01Z"/>
  <path d="M673.91,372.74l9.24-32.13-5.56-14.75,49.34-21.18c7.15,21.3-32.58,57.15-53.02,68.06Z"/>
  <path d="M608.87,234.04l-43.86-2.47c8.91-16.23,44.78-44.91,62.89-27.56.9,7.98-10.18,28.07-19.02,30.03h-.01Z"/>
  <path d="M610.8,305.28c19.59-22.36,44.5-40.91,71.04-56.34-20.99,23.3-40.7,43.55-71.04,56.34Z"/>
  <path d="M766.59,140.01c20.76-5.98,40.36,5.97,45.42,24.41,5.37,19.53-4.67,40.85-25.75,46.04-17.65,4.35-37.73-4.37-44.22-24.77-5.33-16.77,2.99-39.47,24.55-45.69h0ZM771.58,153.77c-14.26,2.87-19.1,15.18-15.91,28.9,2.16,9.3,14.29,16.06,27.49,13.54,9.34-1.79,17.17-14.73,15.12-25.66-2.17-11.56-12.2-19.7-26.7-16.78Z"/>
  <g>
    <path class="cls-1" d="M243.18,1667.85c81.33,63.87,183.35,90.45,284.87,80.09,242.02-32.9,405.41-258.3,350.05-500.72,51.93-68.62,94.64-172.06,86.79-258.9-2.03-25.04-17.9-40.92-41.92-47.7-66.36-9.32-158.41,28.08-217.79,60.74-170.99-109.24-382.89-81.25-519.96,64.85-65.31,69.85-103.83,158.11-108.16,254.06-.34,7.48-5.53,15.52-10.57,20.94-35.62,38.29-60.29,85.12-65.56,137.34-3.9,38.54,4.19,76.37,29.47,105.67,44.42,51.48,110.8,60.2,176.11,54.82l36.67,28.8Z"/>
    <path d="M243.18,1667.85l-36.67-28.8c-65.31,5.38-131.69-3.34-176.11-54.82-25.28-29.3-33.37-67.13-29.47-105.67,5.28-52.22,29.94-99.05,65.56-137.34,5.04-5.42,10.23-13.46,10.57-20.94,4.33-95.95,42.85-184.21,108.16-254.06,137.06-146.1,348.97-174.09,519.96-64.85,59.38-32.66,151.43-70.06,217.79-60.74,24.01,6.78,39.89,22.66,41.92,47.7,7.85,86.84-34.85,190.27-86.79,258.9,55.35,242.42-108.03,467.82-350.05,500.72-101.52,10.36-203.54-16.22-284.87-80.09ZM608.91,1324.44c11.07,17.38,24.28,21.87,46.21,16.37l1.73,86.46c.06,3.04,3.91,9.09,6.73,10.15,2.25.84,9.7.57,12.45-.87,51.95-27.23,88.65-84.38,81.75-146.14,89.68-64.31,154.09-171.4,159.29-281.51.29-6.07-1.2-14.13-4.45-16.71-16.33-12.91-113.86,19.88-138.63,31.24-60.13,27.57-110.25,68.5-149.61,121.01-66.48-10.71-123.75,31.45-153.28,86.01-2.92,5.4,3.64,14.59,8.84,14.6l64.27.15c5.84.01,19.36,4.94,19.35,10.48,0,7.13-3.18,20.51.77,24.66,15.09,14.07,33.28,26.35,44.59,44.11ZM155.54,1590.29c51.11,4.34,102.42-3.59,150.73-21.45,43.96-16.25,84.27-34.86,124.09-59.26,46.29-28.37,89.06-58.73,129.55-94.45,13.59-11.99,20.06-28.28,18.96-46-.89-14.34-10.08-32.05-24.23-39.61-22.27-11.9-44.44-6.81-62.12,9.37-35.02,32.04-69.04,62.81-108.31,89.84-63.09,43.44-164.38,101.76-242.15,91.34-58.87-7.89-70.02-58.04-65.08-109.5-16.32,23.67-25.56,52.12-27.1,81.97-3.17,61.1,51.55,93.15,105.66,97.74Z"/>
    <path class="cls-1" d="M608.91,1324.44c-11.31-17.75-29.5-30.04-44.59-44.11-3.95-4.15-.78-17.53-.77-24.66,0-5.54-13.51-10.47-19.35-10.48l-64.27-.15c-5.2-.01-11.76-9.2-8.84-14.6,29.53-54.56,86.8-96.72,153.28-86.01,39.36-52.51,89.48-93.44,149.61-121.01,24.76-11.35,122.29-44.15,138.63-31.24,3.25,2.57,4.74,10.64,4.45,16.71-5.21,110.11-69.61,217.21-159.29,281.51,6.91,61.75-29.8,118.9-81.75,146.14-2.75,1.44-10.2,1.72-12.45.87-2.82-1.06-6.66-7.11-6.73-10.15l-1.73-86.46c-21.93,5.51-35.14,1.01-46.21-16.37ZM783.8,1180.81c21.02-7.02,32.48-25.94,32.45-45.11-.03-18.16-11.5-35.73-30.1-42.98s-39.47,1.08-50.47,15.53c-11.87,15.6-12.84,37.06-1.09,54.53,9.32,13.86,28.69,24.88,49.2,18.03Z"/>
    <path class="cls-1" d="M155.54,1590.29c-54.12-4.59-108.83-36.64-105.66-97.74,1.55-29.85,10.78-58.3,27.1-81.97-4.95,51.46,6.21,101.62,65.08,109.5,77.77,10.42,179.06-47.9,242.15-91.34,39.26-27.03,73.29-57.8,108.31-89.84,17.68-16.18,39.85-21.27,62.12-9.37,14.14,7.56,23.34,25.26,24.23,39.61,1.1,17.71-5.37,34.01-18.96,46-40.49,35.72-83.26,66.08-129.55,94.45-39.81,24.4-80.13,43.01-124.09,59.26-48.31,17.86-99.62,25.79-150.73,21.45Z"/>
    <path d="M783.8,1180.81c-20.51,6.85-39.88-4.17-49.2-18.03-11.75-17.47-10.78-38.93,1.09-54.53,11-14.45,32.07-22.69,50.47-15.53s30.07,24.82,30.1,42.98c.03,19.18-11.43,38.09-32.45,45.11Z"/>
  </g>
</svg>